<svg xmlns="http://www.w3.org/2000/svg" style="display:none">
  <!-- Home icon -->
  <symbol id="i-home" viewBox="0 0 24 24" fill="currentColor">
    <path d="M10.707 1.293a1 1 0 0 0-1.414 0l-8 8A1 1 0 0 0 1 11h2v10a1 1 0 0 0 1 1h6V15h4v7h6a1 1 0 0 0 1-1V11h2a1 1 0 0 0 .707-1.707l-8-8z"/>
  </symbol>
  <!-- Tank/Bucket icon -->
  <symbol id="i-tank" viewBox="0 0 24 24" fill="currentColor">
    <path d="M4 3a1 1 0 0 0-1 1v2c0 3.866 3.582 7 8 7s8-3.134 8-7V4a1 1 0 0 0-1-1H4zM3 10v7a4 4 0 0 0 4 4h10a4 4 0 0 0 4-4v-7c-2.02 3.06-5.92 5-10 5S5.02 13.06 3 10z"/>
  </symbol>
  <!-- Pump/Gear icon -->
  <symbol id="i-pump" viewBox="0 0 24 24" fill="currentColor">
    <path d="M12 8a4 4 0 1 0 0 8 4 4 0 0 0 0-8zm10 5a1 1 0 0 0 0-2h-1.05a7.967 7.967 0 0 0-1.3-3.13l.74-.74a1 1 0 0 0-1.41-1.41l-.74.74A7.967 7.967 0 0 0 13 3.05V2a1 1 0 0 0-2 0v1.05A7.967 7.967 0 0 0 7.87 4.35l-.74-.74a1 1 0 1 0-1.41 1.41l.74.74A7.967 7.967 0 0 0 3.05 11H2a1 1 0 0 0 0 2h1.05c.16 1.12.55 2.17 1.13 3.12l-.74.74a1 1 0 1 0 1.41 1.41l.74-.74c.95.58 2 .97 3.12 1.13V22a1 1 0 0 0 2 0v-1.05c1.12-.16 2.17-.55 3.12-1.13l.74.74a1 1 0 1 0 1.41-1.41l-.74-.74c.58-.95.97-2 1.13-3.12H22z"/>
  </symbol>
  <!-- Reports/Chart icon -->
  <symbol id="i-reports" viewBox="0 0 24 24" fill="currentColor">
    <path d="M3 3a1 1 0 0 0-1 1v16a1 1 0 0 0 1 1h18a1 1 0 0 0 1-1V4a1 1 0 0 0-1-1H3zm4 14H5v-6h2v6zm5 0h-2V7h2v10zm5 0h-2v-3h2v3z"/>
  </symbol>
  <!-- Settings icon -->
  <symbol id="i-settings" viewBox="0 0 24 24" fill="currentColor">
    <path d="M19.14 12.936a7.96 7.96 0 0 0 0-1.872l2.036-1.58a1 1 0 0 0 .243-1.33l-1.928-3.34a1 1 0 0 0-1.21-.45l-2.397.96a7.992 7.992 0 0 0-1.62-.94l-.36-2.54A1 1 0 0 0 12 0h-4a1 1 0 0 0-.99.84l-.36 2.54a7.992 7.992 0 0 0-1.62.94l-2.397-.96a1 1 0 0 0-1.21.45L-.507 7.15a1 1 0 0 0 .243 1.33l2.036 1.58a7.96 7.96 0 0 0 0 1.872l-2.036 1.58a1 1 0 0 0-.243 1.33l1.928 3.34a1 1 0 0 0 1.21.45l2.397-.96c.51.39 1.05.72 1.62.94l.36 2.54A1 1 0 0 0 8 24h4a1 1 0 0 0 .99-.84l.36-2.54c.57-.22 1.11-.55 1.62-.94l2.397.96a1 1 0 0 0 1.21-.45l1.928-3.34a1 1 0 0 0-.243-1.33l-2.036-1.58zM10 16a4 4 0 1 1 0-8 4 4 0 0 1 0 8z"/>
  </symbol>
  <!-- User/Person icon -->
  <symbol id="i-user" viewBox="0 0 24 24" fill="currentColor">
    <path d="M12 12a5 5 0 1 0-5-5 5 5 0 0 0 5 5zm0 2c-5.33 0-8 2.67-8 6v2h16v-2c0-3.33-2.67-6-8-6z"/>
  </symbol>
  <!-- Lock/Password icon -->
  <symbol id="i-lock" viewBox="0 0 24 24" fill="currentColor">
    <path d="M17 8V6a5 5 0 0 0-10 0v2H5a1 1 0 0 0-1 1v11a1 1 0 0 0 1 1h14a1 1 0 0 0 1-1V9a1 1 0 0 0-1-1h-2zm-8 0V6a3 3 0 0 1 6 0v2H9z"/>
  </symbol>
  <!-- Plus icon -->
  <symbol id="i-plus" viewBox="0 0 24 24" fill="currentColor">
    <path d="M11 11V5a1 1 0 0 1 2 0v6h6a1 1 0 0 1 0 2h-6v6a1 1 0 0 1-2 0v-6H5a1 1 0 0 1 0-2h6z"/>
  </symbol>
  <!-- Manual hand icon -->
  <symbol id="i-hand" viewBox="0 0 24 24" fill="currentColor">
    <path d="M8 12V6a2 2 0 1 1 4 0v4h1V5a2 2 0 1 1 4 0v7h1V9a2 2 0 1 1 4 0v6c0 3.866-3.582 7-8 7H8a6 6 0 0 1-6-6v-3a2 2 0 1 1 4 0v3a2 2 0 0 0 2 2h5a5 5 0 0 0 5-5v-1H8z"/>
  </symbol>
</svg>
